#N canvas 46 256 789 646 10;
#X declare -lib windowing;
#X obj 475 -334 inlet~;
#X text 461 -353 Sinal Original;
#X text 593 -211 Tamanho da Janela (N);
#X obj 470 -300 calculoEspectro;
#X obj 579 33 block~;
#X msg 579 6 set \$1 1 1;
#X obj 52 -317 showWave;
#X obj 51 -76 waveForm;
#X obj 593 -134 s \$0-N;
#X obj 373 -394 r \$0-N;
#X obj 559 -327 r \$0-N;
#X obj 579 -23 r \$0-N;
#X obj 475 -129 r \$0-N;
#X obj 373 -367 / 2;
#X text 126 -96 Forma de Onda Estabilizada;
#X text 211 -333 Espectro de Magnitude;
#X obj 593 -187 loadbang;
#X obj 593 -157 f 1024;
#X obj 464 -179 *~ 10;
#X connect 0 0 3 0;
#X connect 0 0 7 0;
#X connect 3 0 18 0;
#X connect 3 1 7 1;
#X connect 3 2 7 2;
#X connect 5 0 4 0;
#X connect 9 0 13 0;
#X connect 10 0 3 1;
#X connect 11 0 5 0;
#X connect 12 0 7 3;
#X connect 13 0 6 1;
#X connect 16 0 17 0;
#X connect 17 0 8 0;
#X connect 18 0 6 0;
#X coords 0 -1 1 1 335 485 1 45 -330;
