#N canvas 807 92 774 659 10;
#X obj 60 32 inlet~;
#X obj 58 549 outlet~;
#X obj 610 34 tgl 15 0 \$0-onOff empty Liga/Desliga 17 7 0 10 -262144
-1 -1 0 1;
#X obj 528 55 hsl 128 15 0 1 0 0 \$0-gamma0 \$0-setGamma empty -2 -8
0 10 -262144 -1 -1 6350 1;
#X obj 529 76 hsl 128 15 0 1 0 0 \$0-gamma1 \$0-setGamma empty -10
0 0 10 -262144 -1 -1 6350 1;
#X obj 529 96 hsl 128 15 0 1 0 0 \$0-gamma2 \$0-setGamma empty -2 -8
0 10 -262144 -1 -1 6350 1;
#X obj 529 116 hsl 128 15 0 1 0 0 \$0-gamma3 \$0-setGamma empty -2
-8 0 10 -262144 -1 -1 6350 1;
#X obj 529 137 hsl 128 15 0 1 0 0 \$0-gamma4 \$0-setGamma empty -2
-8 0 10 -262144 -1 -1 6350 1;
#X obj 529 157 hsl 128 15 0 1 0 0 \$0-gamma5 \$0-setGamma empty -2
-8 0 10 -262144 -1 -1 6350 1;
#X obj 529 177 hsl 128 15 0 1 0 0 \$0-gamma6 \$0-setGamma empty -2
-8 0 10 -262144 -1 -1 6350 1;
#X obj 529 197 hsl 128 15 0 1 0 0 \$0-gamma7 \$0-setGamma empty -2
-8 0 10 -262144 -1 -1 6350 1;
#X obj 529 217 hsl 128 15 0 1 0 0 \$0-gamma8 \$0-setGamma empty -2
-8 0 10 -262144 -1 -1 6350 1;
#X obj 529 238 hsl 128 15 0 1 0 0 \$0-gamma9 \$0-setGamma empty -2
-8 0 10 -262144 -1 -1 6350 1;
#X text 662 53 31.25Hz;
#X text 661 75 62.5Hz;
#X text 661 95 125Hz;
#X text 662 114 250Hz;
#X text 662 136 500Hz;
#X text 662 156 1000Hz;
#X text 663 177 2000Hz;
#X text 662 196 4000Hz;
#X text 663 217 8000Hz;
#X text 662 235 16000Hz;
#X obj 59 119 demux~;
#X obj 122 33 r \$0-onOff;
#X obj 122 63 f;
#X obj 92 159 send~ \$0-signal;
#X obj 58 503 multiplex~ . .;
#X obj 70 446 r \$0-onOff;
#X obj 70 476 f;
#X obj 235 51 r~ \$0-signal;
#X obj 235 121 throw~ \$0-filter;
#X obj 139 446 catch~ \$0-filter;
#X obj 346 50 r~ \$0-signal;
#X obj 346 120 throw~ \$0-filter;
#X obj 94 198 r~ \$0-signal;
#X obj 94 268 throw~ \$0-filter;
#X obj 225 196 r~ \$0-signal;
#X obj 225 266 throw~ \$0-filter;
#X obj 337 196 r~ \$0-signal;
#X obj 337 266 throw~ \$0-filter;
#X obj 90 309 r~ \$0-signal;
#X obj 90 379 throw~ \$0-filter;
#X obj 218 310 r~ \$0-signal;
#X obj 218 380 throw~ \$0-filter;
#X obj 342 309 r~ \$0-signal;
#X obj 342 379 throw~ \$0-filter;
#X obj 280 434 r~ \$0-signal;
#X obj 280 504 throw~ \$0-filter;
#X obj 415 436 r~ \$0-signal;
#X obj 415 506 throw~ \$0-filter;
#X obj 585 307 loadbang;
#X obj 529 34 bng 15 250 50 0 empty empty Default 17 7 0 10 -262144
-1 -1;
#X obj 545 367 s \$0-setGamma;
#X obj 545 338 f 0.5;
#X obj 235 86 passaFaixa 0 \$0;
#X obj 347 85 passaFaixa 1 \$0;
#X obj 94 233 passaFaixa 2 \$0;
#X obj 225 231 passaFaixa 3 \$0;
#X obj 337 231 passaFaixa 4 \$0;
#X obj 90 344 passaFaixa 5 \$0;
#X obj 218 345 passaFaixa 6 \$0;
#X obj 342 344 passaFaixa 7 \$0;
#X obj 280 469 passaFaixa 8 \$0;
#X obj 415 471 passaFaixa 9 \$0;
#X connect 0 0 23 0;
#X connect 23 0 27 0;
#X connect 23 1 26 0;
#X connect 24 0 25 0;
#X connect 25 0 23 0;
#X connect 27 0 1 0;
#X connect 28 0 29 0;
#X connect 29 0 27 0;
#X connect 30 0 55 0;
#X connect 32 0 27 1;
#X connect 33 0 56 0;
#X connect 35 0 57 0;
#X connect 37 0 58 0;
#X connect 39 0 59 0;
#X connect 41 0 60 0;
#X connect 43 0 61 0;
#X connect 45 0 62 0;
#X connect 47 0 63 0;
#X connect 49 0 64 0;
#X connect 51 0 54 0;
#X connect 52 0 54 0;
#X connect 54 0 53 0;
#X connect 55 0 31 0;
#X connect 56 0 34 0;
#X connect 57 0 36 0;
#X connect 58 0 38 0;
#X connect 59 0 40 0;
#X connect 60 0 42 0;
#X connect 61 0 44 0;
#X connect 62 0 46 0;
#X connect 63 0 48 0;
#X connect 64 0 50 0;
#X coords 0 -1 1 1 190 240 1 520 20;
