#N canvas 603 140 774 627 10;
#X obj 70 42 inlet~;
#X obj 68 559 outlet~;
#X obj 69 129 demux~;
#X obj 132 43 r \$0-onOff;
#X obj 132 73 f;
#X obj 68 513 multiplex~ . .;
#X obj 80 456 r \$0-onOff;
#X obj 80 486 f;
#X obj 314 117 tgl 15 0 \$0-onOff empty Liga/Desliga 17 7 0 10 -262144
-1 -1 0 1;
#X obj 194 229 r IR-size;
#X msg 194 371 set \$2 \$1;
#X obj 194 259 t f b;
#X obj 194 326 pack f s;
#X obj 239 287 symbol IR-left;
#X obj 150 421 FIR~ IR-left;
#X obj 454 32 inlet~;
#X obj 452 549 outlet~;
#X obj 453 119 demux~;
#X obj 516 33 r \$0-onOff;
#X obj 516 63 f;
#X obj 452 503 multiplex~ . .;
#X obj 464 446 r \$0-onOff;
#X obj 464 476 f;
#X obj 578 219 r IR-size;
#X msg 578 361 set \$2 \$1;
#X obj 578 249 t f b;
#X obj 578 316 pack f s;
#X obj 623 277 symbol IR-right;
#X obj 534 411 FIR~ IR-right;
#X connect 0 0 2 0;
#X connect 2 0 5 0;
#X connect 2 1 14 0;
#X connect 3 0 4 0;
#X connect 4 0 2 0;
#X connect 5 0 1 0;
#X connect 6 0 7 0;
#X connect 7 0 5 0;
#X connect 9 0 11 0;
#X connect 10 0 14 0;
#X connect 11 0 12 0;
#X connect 11 1 13 0;
#X connect 12 0 10 0;
#X connect 13 0 12 1;
#X connect 14 0 5 1;
#X connect 15 0 17 0;
#X connect 17 0 20 0;
#X connect 17 1 28 0;
#X connect 18 0 19 0;
#X connect 19 0 17 0;
#X connect 20 0 16 0;
#X connect 21 0 22 0;
#X connect 22 0 20 0;
#X connect 23 0 25 0;
#X connect 24 0 28 0;
#X connect 25 0 26 0;
#X connect 25 1 27 0;
#X connect 26 0 24 0;
#X connect 27 0 26 1;
#X connect 28 0 20 1;
#X coords 0 -1 1 1 120 40 1 300 100;
