#N canvas 308 288 1521 610 10;
#X declare -lib windowing;
#X obj -162 -19 cnv 15 600 180 sback rback empty 20 12 0 14 -233017
-66577 0;
#X obj -157 100 cnv 10 55 55 scasa_z rcasa_z Z 20 25 0 20 -128992 -66577
0;
#X obj 145 -17 cnv 10 55 55 scasa_y rcasa_y Y 20 25 0 20 -128992 -66577
0;
#X obj -96 100 cnv 10 55 55 scasa_x rcasa_x X 20 25 0 20 -128992 -66577
0;
#X obj 204 -16 cnv 10 55 55 scasa_u rcasa_u U 20 25 0 20 -128992 -66577
0;
#X obj 85 -17 cnv 10 55 55 scasa_t rcasa_t T 20 25 0 20 -128992 -66577
0;
#X obj -96 40 cnv 10 55 55 scasa_s rcasa_s S 20 25 0 20 -128992 -66577
0;
#X obj 25 -17 cnv 10 55 55 scasa_r rcasa_r R 20 25 0 20 -128992 -66577
0;
#X obj -158 -18 cnv 10 55 55 scasa_q rcasa_q Q 20 25 0 20 -128992 -66577
0;
#X obj 381 -15 cnv 10 55 55 scasa_p rcasa_p P 20 25 0 20 -128992 -66577
0;
#X obj 323 -16 cnv 10 55 55 scasa_o rcasa_o O 20 25 0 20 -128992 -66577
0;
#X obj 145 100 cnv 10 55 55 scasa_n rcasa_n N 20 25 0 20 -128992 -66577
0;
#X obj 205 101 cnv 10 55 55 scasa_m rcasa_m M 20 25 0 20 -128992 -66577
0;
#X obj 322 42 cnv 10 55 55 scasa_l rcasa_l L 20 25 0 20 -128992 -66577
0;
#X obj 263 43 cnv 10 55 55 scasa_k rcasa_k K 20 25 0 20 -128992 -66577
0;
#X obj 204 42 cnv 10 55 55 scasa_j rcasa_j J 20 25 0 20 -128992 -66577
0;
#X obj 264 -17 cnv 10 55 55 scasa_i rcasa_i I 20 25 0 20 -128992 -66577
0;
#X obj 145 42 cnv 10 55 55 scasa_h rcasa_h H 20 25 0 20 -128992 -66577
0;
#X obj 85 42 cnv 10 55 55 scasa_g rcasa_g G 20 25 0 20 -128992 -66577
0;
#X obj 25 42 cnv 10 55 55 scasa_f rcasa_f F 20 25 0 20 -128992 -66577
0;
#X obj -35 -17 cnv 10 55 55 scasa_e rcasa_e E 20 25 0 20 -128992 -66577
0;
#X obj -35 42 cnv 10 55 55 scasa_d rcasa_d D 20 25 0 20 -128992 -66577
0;
#X obj -34 101 cnv 10 55 55 scasa_c rcasa_c C 20 25 0 20 -128992 -66577
0;
#X obj 85 100 cnv 10 55 55 scasa_b rcasa_b B 20 25 0 20 -128992 -66577
0;
#X obj -158 40 cnv 10 55 55 scasa_a rcasa_a A 20 25 0 20 -128992 -66577
0;
#X obj -97 -17 cnv 10 55 55 scasa_w rcasa_w W 20 25 0 20 -128992 -66577
0;
#X obj 26 100 cnv 10 55 55 scasa_v rcasa_v V 20 25 0 20 -128992 -66577
0;
#X obj -206 325 stringInstance;
#X obj 68 470 *~ 0.25;
#X text 118 469 scale the output down by approx 12dB to avoid clipping
;
#N canvas 164 533 539 357 keyHandler 0;
#X obj 69 -6 key;
#X obj 327 -24 keyup;
#X obj 198 98 makefilename rcasa_%c;
#X msg 198 123 \; \$1 color 16 2;
#X obj 353 86 makefilename rcasa_%c;
#X msg 353 116 \; \$1 color 11 2;
#N canvas 666 316 450 300 keySelect 0;
#X obj 90 59 inlet allkeys;
#X obj 135 181 outlet selectedkeys;
#X obj 90 104 moses 123;
#X obj 90 137 moses 97;
#X connect 0 0 2 0;
#X connect 2 0 3 0;
#X connect 3 1 1 0;
#X restore 327 17 pd keySelect;
#N canvas 666 316 450 300 keySelect 0;
#X obj 158 40 inlet allkeys;
#X obj 158 85 moses 123;
#X obj 158 118 moses 97;
#X obj 94 160 moses 52;
#X obj 94 189 moses 49;
#X obj 88 227 - 48;
#X obj 88 260 outlet strumKeys;
#X obj 203 162 outlet fretKeys;
#X connect 0 0 1 0;
#X connect 1 0 2 0;
#X connect 2 0 3 0;
#X connect 2 1 7 0;
#X connect 3 0 4 0;
#X connect 4 1 5 0;
#X connect 5 0 6 0;
#X restore 69 40 pd keySelect;
#X obj 327 189 outlet fretKeyUp;
#X obj 171 183 outlet fretKeyDown;
#X obj 17 189 outlet strumKey;
#X obj 171 74 t f f;
#X obj 17 71 t f f;
#X obj 44 101 select 1 2 3;
#X obj 44 167 s \$0-rstrum1;
#X obj 90 126 s \$0-rstrum3;
#X obj 67 147 s \$0-rstrum2;
#X obj 171 158 makefilename %c;
#X obj 327 159 makefilename %c;
#X connect 0 0 7 0;
#X connect 1 0 6 0;
#X connect 2 0 3 0;
#X connect 4 0 5 0;
#X connect 6 0 4 0;
#X connect 6 0 18 0;
#X connect 7 0 12 0;
#X connect 7 1 11 0;
#X connect 11 0 17 0;
#X connect 11 1 2 0;
#X connect 12 0 10 0;
#X connect 12 1 13 0;
#X connect 13 0 14 0;
#X connect 13 1 16 0;
#X connect 13 2 15 0;
#X connect 17 0 9 0;
#X connect 18 0 8 0;
#X restore -49 179 pd keyHandler;
#N canvas 926 154 681 533 noteHandler 0;
#X obj 52 19 inlet strum;
#X obj 243 19 inlet keyDown;
#X obj 342 17 inlet keyUp;
#X obj 53 479 outlet chord1note;
#X obj 313 482 outlet chord3note;
#X obj 182 481 outlet chord2note;
#X obj 545 279 table chord1frets 10;
#N canvas 1045 45 621 489 chord1keys 0;
#X obj 51 425 outlet fretIndex;
#X obj 501 411 outlet notOurKey;
#X obj 456 361 select p;
#X obj 411 332 select o;
#X obj 366 302 select i;
#X obj 321 276 select u;
#X obj 276 250 select y;
#X obj 231 222 select t;
#X obj 186 191 select r;
#X obj 141 160 select e;
#X obj 96 122 select w;
#X obj 51 85 select q;
#X obj 51 120 f 0;
#X obj 96 161 f 1;
#X obj 141 192 f 2;
#X obj 186 225 f 3;
#X obj 231 252 f 4;
#X obj 276 278 f 5;
#X obj 321 306 f 6;
#X obj 366 334 f 7;
#X obj 411 367 f 8;
#X obj 456 390 f 9;
#X obj 51 18 inlet char;
#X connect 2 0 21 0;
#X connect 2 1 1 0;
#X connect 3 0 20 0;
#X connect 3 1 2 0;
#X connect 4 0 19 0;
#X connect 4 1 3 0;
#X connect 5 0 18 0;
#X connect 5 1 4 0;
#X connect 6 0 17 0;
#X connect 6 1 5 0;
#X connect 7 0 16 0;
#X connect 7 1 6 0;
#X connect 8 0 15 0;
#X connect 8 1 7 0;
#X connect 9 0 14 0;
#X connect 9 1 8 0;
#X connect 10 0 13 0;
#X connect 10 1 9 0;
#X connect 11 0 12 0;
#X connect 11 1 10 0;
#X connect 12 0 0 0;
#X connect 13 0 0 0;
#X connect 14 0 0 0;
#X connect 15 0 0 0;
#X connect 16 0 0 0;
#X connect 17 0 0 0;
#X connect 18 0 0 0;
#X connect 19 0 0 0;
#X connect 20 0 0 0;
#X connect 21 0 0 0;
#X connect 22 0 11 0;
#X restore 243 128 pd chord1keys;
#N canvas 225 282 621 489 chord2keys 0;
#X obj 51 18 inlet;
#X obj 51 425 outlet fretIndex;
#X obj 456 407 outlet notOurKey;
#X obj 51 118 f 0;
#X obj 96 159 f 1;
#X obj 141 190 f 2;
#X obj 186 223 f 3;
#X obj 231 250 f 4;
#X obj 276 276 f 5;
#X obj 321 304 f 6;
#X obj 366 332 f 7;
#X obj 411 365 f 8;
#X obj 51 83 select a;
#X obj 96 120 select s;
#X obj 141 158 select d;
#X obj 186 189 select f;
#X obj 231 220 select g;
#X obj 276 248 select h;
#X obj 321 274 select j;
#X obj 366 300 select k;
#X obj 411 330 select l;
#X connect 0 0 12 0;
#X connect 3 0 1 0;
#X connect 4 0 1 0;
#X connect 5 0 1 0;
#X connect 6 0 1 0;
#X connect 7 0 1 0;
#X connect 8 0 1 0;
#X connect 9 0 1 0;
#X connect 10 0 1 0;
#X connect 11 0 1 0;
#X connect 12 0 3 0;
#X connect 12 1 13 0;
#X connect 13 0 4 0;
#X connect 13 1 14 0;
#X connect 14 0 5 0;
#X connect 14 1 15 0;
#X connect 15 0 6 0;
#X connect 15 1 16 0;
#X connect 16 0 7 0;
#X connect 16 1 17 0;
#X connect 17 0 8 0;
#X connect 17 1 18 0;
#X connect 18 0 9 0;
#X connect 18 1 19 0;
#X connect 19 0 10 0;
#X connect 19 1 20 0;
#X connect 20 0 11 0;
#X connect 20 1 2 0;
#X restore 318 163 pd chord2keys;
#N canvas 183 281 621 489 chord3keys 0;
#X obj 51 18 inlet;
#X obj 51 425 outlet fretIndex;
#X obj 366 426 outlet notOurKey;
#X obj 51 147 f 0;
#X obj 96 188 f 1;
#X obj 141 219 f 2;
#X obj 186 252 f 3;
#X obj 231 279 f 4;
#X obj 276 305 f 5;
#X obj 321 333 f 6;
#X obj 51 112 select z;
#X obj 96 149 select x;
#X obj 141 187 select c;
#X obj 186 218 select v;
#X obj 231 249 select b;
#X obj 276 278 select n;
#X obj 321 303 select m;
#X connect 0 0 10 0;
#X connect 3 0 1 0;
#X connect 4 0 1 0;
#X connect 5 0 1 0;
#X connect 6 0 1 0;
#X connect 7 0 1 0;
#X connect 8 0 1 0;
#X connect 9 0 1 0;
#X connect 10 0 3 0;
#X connect 10 1 11 0;
#X connect 11 0 4 0;
#X connect 11 1 12 0;
#X connect 12 0 5 0;
#X connect 12 1 13 0;
#X connect 13 0 6 0;
#X connect 13 1 14 0;
#X connect 14 0 7 0;
#X connect 14 1 15 0;
#X connect 15 0 8 0;
#X connect 15 1 16 0;
#X connect 16 0 9 0;
#X connect 16 1 2 0;
#X restore 401 195 pd chord3keys;
#X obj 545 303 table chord2frets 9;
#X obj 545 327 table chord3frets 7;
#X obj 270 93 f 1;
#X obj 369 99 f 0;
#X obj 52 178 select 1 2 3;
#X obj 52 308 tabdump chord1frets;
#X obj 52 335 list-minmax;
#X obj 312 343 list-minmax;
#X obj 183 340 list-minmax;
#X obj 243 232 setTableValue chord2frets;
#X obj 183 313 tabdump chord2frets;
#X obj 312 316 tabdump chord3frets;
#X obj 53 399 + 67;
#X obj 313 399 + 52;
#X obj 182 398 + 57;
#X floatatom 448 416 5 1 127 0 - - #0-sBase1;
#X floatatom 450 450 5 0 0 0 - #0-rNote1 -;
#X obj 76 459 s \$0-rNote1;
#X floatatom 513 416 5 1 127 0 - - #0-sBase2;
#X floatatom 574 417 5 1 127 0 - - #0-sBase3;
#X floatatom 512 451 5 0 0 0 - #0-rNote2 -;
#X floatatom 577 451 5 0 0 0 - #0-rNote3 -;
#X obj 194 459 s \$0-rNote2;
#X obj 326 461 s \$0-rNote3;
#X obj 74 372 r \$0-sBase1;
#X obj 203 370 r \$0-sBase2;
#X obj 334 373 r \$0-sBase3;
#X obj 466 289 loadbang;
#X msg 466 325 67 57 52;
#X obj 466 351 unpack f f f;
#X text 443 386 Notas das Cordas (sem casas):;
#X text 446 433 Notas sendo tocadas:;
#X text 443 397 [podem ser alteradas];
#X obj 522 8 inlet musicTuple;
#N canvas 512 475 546 396 decodeTuple 0;
#X obj 150 18 inlet;
#X obj 57 110 unpack f f;
#X obj 57 194 t f f;
#X obj 57 326 outlet strumChord;
#X msg 206 246 \; \$1 color 11 2;
#X obj 206 216 makefilename rcasa_%s;
#N canvas 1142 552 450 300 getChar 0;
#X obj 115 168 zl nth;
#X obj 101 58 select 1 2 3;
#X msg 101 129 q w e r t y u i o p;
#X msg 124 105 a s d f g h j k l;
#X msg 147 84 z x c v b n m;
#X obj 115 208 symbol;
#X obj 115 247 outlet;
#X obj 79 11 inlet strum;
#X obj 238 16 inlet index;
#X connect 0 0 5 0;
#X connect 1 0 2 0;
#X connect 1 1 3 0;
#X connect 1 2 4 0;
#X connect 2 0 0 0;
#X connect 3 0 0 0;
#X connect 4 0 0 0;
#X connect 5 0 6 0;
#X connect 7 0 1 0;
#X connect 8 0 0 1;
#X restore 84 222 pd getChar;
#X obj 163 79 zl reg;
#X obj 150 47 t l l b;
#X obj 206 122 unpack f f;
#N canvas 1142 552 450 300 getChar 0;
#X obj 115 168 zl nth;
#X obj 101 58 select 1 2 3;
#X msg 101 129 q w e r t y u i o p;
#X msg 124 105 a s d f g h j k l;
#X msg 147 84 z x c v b n m;
#X obj 115 208 symbol;
#X obj 115 247 outlet;
#X obj 79 11 inlet strum;
#X obj 238 16 inlet index;
#X connect 0 0 5 0;
#X connect 1 0 2 0;
#X connect 1 1 3 0;
#X connect 1 2 4 0;
#X connect 2 0 0 0;
#X connect 3 0 0 0;
#X connect 4 0 0 0;
#X connect 5 0 6 0;
#X connect 7 0 1 0;
#X connect 8 0 0 1;
#X restore 206 171 pd getChar;
#X text 178 190 isso é pra apagar a casa que foi acesa na tupla anterior
;
#X obj 57 145 moses 1;
#X obj 178 326 outlet charDown;
#X obj 292 326 outlet charUp;
#X connect 0 0 8 0;
#X connect 1 0 12 0;
#X connect 1 1 6 1;
#X connect 2 0 3 0;
#X connect 2 1 6 0;
#X connect 5 0 4 0;
#X connect 6 0 13 0;
#X connect 7 0 9 0;
#X connect 8 0 1 0;
#X connect 8 1 7 1;
#X connect 8 2 7 0;
#X connect 9 0 10 0;
#X connect 9 1 10 1;
#X connect 10 0 5 0;
#X connect 10 0 14 0;
#X connect 12 1 2 0;
#X restore 522 36 pd decodeTuple;
#X obj 167 202 setTableValue chord1frets;
#X obj 422 230 setTableValue chord3frets;
#X obj 243 66 t s b;
#X obj 342 70 t s b;
#N canvas 377 471 450 300 sendStrum 0;
#X obj 108 42 inlet;
#X obj 108 139 pack f f;
#X obj 153 112 f \$0;
#X obj 108 92 t f b;
#X msg 108 170 \; \$2-rstrum\$1 bang;
#X connect 0 0 3 0;
#X connect 1 0 4 0;
#X connect 2 0 1 1;
#X connect 3 0 1 0;
#X connect 3 1 2 0;
#X restore 522 135 pd sendStrum;
#N canvas 66 77 450 300 acendeCasa 0;
#X msg 158 158 \; \$1 color 16 2;
#X obj 158 59 inlet;
#X obj 158 133 makefilename rcasa_%s;
#X connect 1 0 2 0;
#X connect 2 0 0 0;
#X restore 542 99 pd acendeCasa;
#X connect 0 0 14 0;
#X connect 1 0 47 0;
#X connect 2 0 48 0;
#X connect 7 0 45 0;
#X connect 7 1 8 0;
#X connect 8 0 19 0;
#X connect 8 1 9 0;
#X connect 9 0 46 0;
#X connect 12 0 19 1;
#X connect 12 0 45 1;
#X connect 12 0 46 1;
#X connect 13 0 19 1;
#X connect 13 0 45 1;
#X connect 13 0 46 1;
#X connect 14 0 15 0;
#X connect 14 1 20 0;
#X connect 14 2 21 0;
#X connect 15 0 16 0;
#X connect 16 1 22 0;
#X connect 17 1 23 0;
#X connect 18 1 24 0;
#X connect 20 0 18 0;
#X connect 21 0 17 0;
#X connect 22 0 3 0;
#X connect 22 0 27 0;
#X connect 23 0 4 0;
#X connect 23 0 33 0;
#X connect 24 0 5 0;
#X connect 24 0 32 0;
#X connect 34 0 22 1;
#X connect 35 0 24 1;
#X connect 36 0 23 1;
#X connect 37 0 38 0;
#X connect 38 0 39 0;
#X connect 39 0 25 0;
#X connect 39 1 28 0;
#X connect 39 2 29 0;
#X connect 43 0 44 0;
#X connect 44 0 49 0;
#X connect 44 1 50 0;
#X connect 44 1 47 0;
#X connect 44 2 48 0;
#X connect 47 0 7 0;
#X connect 47 1 12 0;
#X connect 48 0 7 0;
#X connect 48 1 13 0;
#X coords 0 -1 1 1 182 100 1 440 375;
#X restore -69 208 pd noteHandler;
#X obj 472 62 analysisAndOutput;
#X obj 824 -17 catch~ \$0-sound;
#X obj 69 498 throw~ \$0-sound;
#X obj 846 15 loadIR;
#X obj 823 224 equalizador;
#X obj 822 485 throw~ \$0-soundEq;
#X obj 1095 249 catch~ \$0-soundEq;
#X obj 1082 417 output~;
#X obj 1053 321 espacializador;
#X obj -225 -18 bng 55 250 50 0 \$0-strum1 \$0-rstrum1 empty 17 7 0
10 -262144 -1 -1;
#X obj -224 39 bng 55 250 50 0 \$0-strum2 \$0-rstrum2 empty 17 7 0
10 -262144 -1 -1;
#X obj -224 98 bng 55 250 50 0 \$0-strum3 \$0-rstrum3 empty 17 7 0
10 -262144 -1 -1;
#N canvas 964 419 450 300 strumBangHandler 0;
#X obj -153 34 r \$0-strum1;
#X obj -125 60 r \$0-strum2;
#X obj -96 82 r \$0-strum3;
#X obj -153 239 outlet;
#X obj -153 129 f 1;
#X obj -125 129 f 2;
#X obj -96 129 f 3;
#X connect 0 0 4 0;
#X connect 1 0 5 0;
#X connect 2 0 6 0;
#X connect 4 0 3 0;
#X connect 5 0 3 0;
#X connect 6 0 3 0;
#X restore -202 178 pd strumBangHandler;
#X obj 122 184 loadMusic;
#X obj 18 328 stringInstance;
#X obj 243 331 stringInstance;
#X connect 27 0 28 0;
#X connect 28 0 34 0;
#X connect 30 0 31 0;
#X connect 30 1 31 1;
#X connect 30 2 31 2;
#X connect 31 0 27 0;
#X connect 31 1 46 0;
#X connect 31 2 47 0;
#X connect 33 0 32 0;
#X connect 33 0 36 0;
#X connect 36 0 37 0;
#X connect 38 0 40 0;
#X connect 38 0 40 1;
#X connect 40 0 39 0;
#X connect 40 1 39 1;
#X connect 44 0 31 0;
#X connect 45 0 31 3;
#X connect 46 0 28 0;
#X connect 47 0 28 0;
