#N canvas 305 229 1521 610 10;
#X declare -lib windowing;
#X obj -162 -19 cnv 15 600 180 sback rback empty 20 12 0 14 -233017
-66577 0;
#X obj -157 100 cnv 10 55 55 scasa_z rcasa_z Z 20 25 0 20 -128992 -66577
0;
#X obj 145 -17 cnv 10 55 55 scasa_y rcasa_y Y 20 25 0 20 -128992 -66577
0;
#X obj -96 100 cnv 10 55 55 scasa_x rcasa_x X 20 25 0 20 -128992 -66577
0;
#X obj 204 -16 cnv 10 55 55 scasa_u rcasa_u U 20 25 0 20 -128992 -66577
0;
#X obj 85 -17 cnv 10 55 55 scasa_t rcasa_t T 20 25 0 20 -128992 -66577
0;
#X obj -96 40 cnv 10 55 55 scasa_s rcasa_s S 20 25 0 20 -128992 -66577
0;
#X obj 25 -17 cnv 10 55 55 scasa_r rcasa_r R 20 25 0 20 -128992 -66577
0;
#X obj -158 -18 cnv 10 55 55 scasa_q rcasa_q Q 20 25 0 20 -128992 -66577
0;
#X obj 381 -15 cnv 10 55 55 scasa_p rcasa_p P 20 25 0 20 -128992 -66577
0;
#X obj 323 -16 cnv 10 55 55 scasa_o rcasa_o O 20 25 0 20 -128992 -66577
0;
#X obj 145 100 cnv 10 55 55 scasa_n rcasa_n N 20 25 0 20 -128992 -66577
0;
#X obj 205 101 cnv 10 55 55 scasa_m rcasa_m M 20 25 0 20 -128992 -66577
0;
#X obj 322 42 cnv 10 55 55 scasa_l rcasa_l L 20 25 0 20 -128992 -66577
0;
#X obj 263 43 cnv 10 55 55 scasa_k rcasa_k K 20 25 0 20 -128992 -66577
0;
#X obj 204 42 cnv 10 55 55 scasa_j rcasa_j J 20 25 0 20 -128992 -66577
0;
#X obj 264 -17 cnv 10 55 55 scasa_i rcasa_i I 20 25 0 20 -128992 -66577
0;
#X obj 145 42 cnv 10 55 55 scasa_h rcasa_h H 20 25 0 20 -128992 -66577
0;
#X obj 85 42 cnv 10 55 55 scasa_g rcasa_g G 20 25 0 20 -128992 -66577
0;
#X obj 25 42 cnv 10 55 55 scasa_f rcasa_f F 20 25 0 20 -128992 -66577
0;
#X obj -35 -17 cnv 10 55 55 scasa_e rcasa_e E 20 25 0 20 -128992 -66577
0;
#X obj -35 42 cnv 10 55 55 scasa_d rcasa_d D 20 25 0 20 -128992 -66577
0;
#X obj -34 101 cnv 10 55 55 scasa_c rcasa_c C 20 25 0 20 -128992 -66577
0;
#X obj 85 100 cnv 10 55 55 scasa_b rcasa_b B 20 25 0 20 -128992 -66577
0;
#X obj -158 40 cnv 10 55 55 scasa_a rcasa_a A 20 25 0 20 -128992 -66577
0;
#X obj -97 -17 cnv 10 55 55 scasa_w rcasa_w W 20 25 0 20 -128992 -66577
0;
#X obj 26 100 cnv 10 55 55 scasa_v rcasa_v V 20 25 0 20 -128992 -66577
0;
#X obj -206 325 stringInstance;
#X obj 69 520 outlet~;
#X obj 68 460 *~ 0.25;
#X text 129 459 scale the output down by approx 12dB to avoid clipping
;
#X obj 25 329 stringInstance;
#X obj 243 331 stringInstance;
#N canvas 198 274 539 357 keyHandler 0;
#X obj 69 -6 key;
#X obj 327 -24 keyup;
#X obj 165 103 makefilename rcasa_%c;
#X msg 165 136 \; \$1 color 16 2;
#X obj 353 86 makefilename rcasa_%c;
#X msg 353 131 \; \$1 color 11 2;
#N canvas 666 316 450 300 keySelect 0;
#X obj 90 59 inlet allkeys;
#X obj 135 181 outlet selectedkeys;
#X obj 90 104 moses 123;
#X obj 90 137 moses 97;
#X connect 0 0 2 0;
#X connect 2 0 3 0;
#X connect 3 1 1 0;
#X restore 327 17 pd keySelect;
#N canvas 666 316 450 300 keySelect 0;
#X obj 158 40 inlet allkeys;
#X obj 158 85 moses 123;
#X obj 158 118 moses 97;
#X obj 94 160 moses 52;
#X obj 94 189 moses 49;
#X obj 88 227 - 48;
#X obj 88 260 outlet strumKeys;
#X obj 203 162 outlet fretKeys;
#X connect 0 0 1 0;
#X connect 1 0 2 0;
#X connect 2 0 3 0;
#X connect 2 1 7 0;
#X connect 3 0 4 0;
#X connect 4 1 5 0;
#X connect 5 0 6 0;
#X restore 69 40 pd keySelect;
#X obj 327 182 outlet fretKeyUp;
#X obj 138 175 outlet fretKeyDown;
#X obj 69 202 outlet strumKey;
#X obj 138 66 t f f;
#X connect 0 0 7 0;
#X connect 1 0 6 0;
#X connect 2 0 3 0;
#X connect 4 0 5 0;
#X connect 6 0 4 0;
#X connect 6 0 8 0;
#X connect 7 0 10 0;
#X connect 7 1 11 0;
#X connect 11 0 9 0;
#X connect 11 1 2 0;
#X restore 1 183 pd keyHandler;
#N canvas 46 303 681 533 noteHandler 0;
#X obj 52 19 inlet strum;
#X obj 306 18 inlet keyDown;
#X obj 405 16 inlet keyUp;
#X obj 53 479 outlet chord1note;
#X obj 313 482 outlet chord3note;
#X obj 182 481 outlet chord2note;
#X obj 513 62 table chord1frets 10;
#N canvas 571 125 621 489 chord1keys 0;
#X obj 51 18 inlet;
#X obj 51 425 outlet fretIndex;
#X obj 501 411 outlet notOurKey;
#X obj 456 361 select p;
#X obj 411 332 select o;
#X obj 366 302 select i;
#X obj 321 276 select u;
#X obj 276 250 select y;
#X obj 231 222 select t;
#X obj 186 191 select r;
#X obj 141 160 select e;
#X obj 96 122 select w;
#X obj 51 85 select q;
#X obj 51 120 f 0;
#X obj 96 161 f 1;
#X obj 141 192 f 2;
#X obj 186 225 f 3;
#X obj 231 252 f 4;
#X obj 276 278 f 5;
#X obj 321 306 f 6;
#X obj 366 334 f 7;
#X obj 411 367 f 8;
#X obj 456 390 f 9;
#X obj 51 53 makefilename %c;
#X connect 0 0 23 0;
#X connect 3 0 22 0;
#X connect 3 1 2 0;
#X connect 4 0 21 0;
#X connect 4 1 3 0;
#X connect 5 0 20 0;
#X connect 5 1 4 0;
#X connect 6 0 19 0;
#X connect 6 1 5 0;
#X connect 7 0 18 0;
#X connect 7 1 6 0;
#X connect 8 0 17 0;
#X connect 8 1 7 0;
#X connect 9 0 16 0;
#X connect 9 1 8 0;
#X connect 10 0 15 0;
#X connect 10 1 9 0;
#X connect 11 0 14 0;
#X connect 11 1 10 0;
#X connect 12 0 13 0;
#X connect 12 1 11 0;
#X connect 13 0 1 0;
#X connect 14 0 1 0;
#X connect 15 0 1 0;
#X connect 16 0 1 0;
#X connect 17 0 1 0;
#X connect 18 0 1 0;
#X connect 19 0 1 0;
#X connect 20 0 1 0;
#X connect 21 0 1 0;
#X connect 22 0 1 0;
#X connect 23 0 12 0;
#X restore 306 127 pd chord1keys;
#N canvas 225 282 621 489 chord2keys 0;
#X obj 51 18 inlet;
#X obj 51 425 outlet fretIndex;
#X obj 456 407 outlet notOurKey;
#X obj 51 118 f 0;
#X obj 96 159 f 1;
#X obj 141 190 f 2;
#X obj 186 223 f 3;
#X obj 231 250 f 4;
#X obj 276 276 f 5;
#X obj 321 304 f 6;
#X obj 366 332 f 7;
#X obj 411 365 f 8;
#X obj 51 83 select a;
#X obj 96 120 select s;
#X obj 141 158 select d;
#X obj 186 189 select f;
#X obj 231 220 select g;
#X obj 276 248 select h;
#X obj 321 274 select j;
#X obj 366 300 select k;
#X obj 411 330 select l;
#X connect 0 0 12 0;
#X connect 3 0 1 0;
#X connect 4 0 1 0;
#X connect 5 0 1 0;
#X connect 6 0 1 0;
#X connect 7 0 1 0;
#X connect 8 0 1 0;
#X connect 9 0 1 0;
#X connect 10 0 1 0;
#X connect 11 0 1 0;
#X connect 12 0 3 0;
#X connect 12 1 13 0;
#X connect 13 0 4 0;
#X connect 13 1 14 0;
#X connect 14 0 5 0;
#X connect 14 1 15 0;
#X connect 15 0 6 0;
#X connect 15 1 16 0;
#X connect 16 0 7 0;
#X connect 16 1 17 0;
#X connect 17 0 8 0;
#X connect 17 1 18 0;
#X connect 18 0 9 0;
#X connect 18 1 19 0;
#X connect 19 0 10 0;
#X connect 19 1 20 0;
#X connect 20 0 11 0;
#X connect 20 1 2 0;
#X restore 381 162 pd chord2keys;
#N canvas 183 281 621 489 chord3keys 0;
#X obj 51 18 inlet;
#X obj 51 425 outlet fretIndex;
#X obj 366 426 outlet notOurKey;
#X obj 51 147 f 0;
#X obj 96 188 f 1;
#X obj 141 219 f 2;
#X obj 186 252 f 3;
#X obj 231 279 f 4;
#X obj 276 305 f 5;
#X obj 321 333 f 6;
#X obj 51 112 select z;
#X obj 96 149 select x;
#X obj 141 187 select c;
#X obj 186 218 select v;
#X obj 231 249 select b;
#X obj 276 278 select n;
#X obj 321 303 select m;
#X connect 0 0 10 0;
#X connect 3 0 1 0;
#X connect 4 0 1 0;
#X connect 5 0 1 0;
#X connect 6 0 1 0;
#X connect 7 0 1 0;
#X connect 8 0 1 0;
#X connect 9 0 1 0;
#X connect 10 0 3 0;
#X connect 10 1 11 0;
#X connect 11 0 4 0;
#X connect 11 1 12 0;
#X connect 12 0 5 0;
#X connect 12 1 13 0;
#X connect 13 0 6 0;
#X connect 13 1 14 0;
#X connect 14 0 7 0;
#X connect 14 1 15 0;
#X connect 15 0 8 0;
#X connect 15 1 16 0;
#X connect 16 0 9 0;
#X connect 16 1 2 0;
#X restore 464 194 pd chord3keys;
#X obj 513 86 table chord2frets 9;
#X obj 513 110 table chord3frets 7;
#X obj 306 65 t f b;
#X obj 333 92 f 1;
#X obj 405 69 t f b;
#X obj 432 98 f 0;
#X obj 52 178 select 1 2 3;
#X obj 52 308 tabdump chord1frets;
#X obj 52 335 list-minmax;
#X obj 312 343 list-minmax;
#X obj 183 340 list-minmax;
#X obj 230 201 setTableValue chord1frets;
#X obj 485 229 setTableValue chord3frets;
#X obj 306 231 setTableValue chord2frets;
#X obj 183 313 tabdump chord2frets;
#X obj 312 316 tabdump chord3frets;
#X obj 53 399 + 67;
#X obj 313 399 + 52;
#X obj 182 398 + 57;
#X floatatom 448 416 5 0 0 0 - - #0-sBase1;
#X floatatom 450 450 5 0 0 0 - #0-rNote1 -;
#X obj 76 459 s \$0-rNote1;
#X floatatom 513 416 5 0 0 0 - - #0-sBase2;
#X floatatom 575 416 5 0 0 0 - - #0-sBase3;
#X floatatom 512 451 5 0 0 0 - #0-rNote2 -;
#X floatatom 577 451 5 0 0 0 - #0-rNote3 -;
#X obj 194 459 s \$0-rNote2;
#X obj 326 461 s \$0-rNote3;
#X obj 74 372 r \$0-sBase1;
#X obj 203 370 r \$0-sBase2;
#X obj 334 373 r \$0-sBase3;
#X obj 481 291 loadbang;
#X msg 481 327 67 57 52;
#X obj 481 353 unpack f f f;
#X text 442 388 Notas das Cordas (sem casas):;
#X text 446 433 Notas sendo tocadas:;
#X text 443 397 [podem ser alteradas];
#X connect 0 0 16 0;
#X connect 1 0 12 0;
#X connect 2 0 14 0;
#X connect 7 0 21 0;
#X connect 7 1 8 0;
#X connect 8 0 23 0;
#X connect 8 1 9 0;
#X connect 9 0 22 0;
#X connect 12 0 7 0;
#X connect 12 1 13 0;
#X connect 13 0 21 1;
#X connect 13 0 23 1;
#X connect 13 0 22 1;
#X connect 14 0 7 0;
#X connect 14 1 15 0;
#X connect 15 0 21 1;
#X connect 15 0 23 1;
#X connect 15 0 22 1;
#X connect 16 0 17 0;
#X connect 16 1 24 0;
#X connect 16 2 25 0;
#X connect 17 0 18 0;
#X connect 18 1 26 0;
#X connect 19 1 27 0;
#X connect 20 1 28 0;
#X connect 24 0 20 0;
#X connect 25 0 19 0;
#X connect 26 0 3 0;
#X connect 26 0 31 0;
#X connect 27 0 4 0;
#X connect 27 0 37 0;
#X connect 28 0 5 0;
#X connect 28 0 36 0;
#X connect 38 0 26 1;
#X connect 39 0 28 1;
#X connect 40 0 27 1;
#X connect 41 0 42 0;
#X connect 42 0 43 0;
#X connect 43 0 29 0;
#X connect 43 1 32 0;
#X connect 43 2 33 0;
#X coords 0 -1 1 1 182 100 1 440 375;
#X restore -45 208 pd noteHandler;
#X obj -229 -19 vradio 60 1 0 3 empty empty empty 0 -8 0 10 -262144
-1 -1 0;
#X obj -45 184 + 1;
#X obj 472 62 analysisAndOutput;
#X obj 824 -17 catch~ \$0-sound;
#X obj 77 498 throw~ \$0-sound;
#X obj 846 15 loadIR;
#X obj 823 224 equalizador;
#X obj 822 485 throw~ \$0-soundEq;
#X obj 1095 249 catch~ \$0-soundEq;
#X obj 1082 417 output~;
#X obj 1053 321 espacializador;
#X connect 27 0 29 0;
#X connect 29 0 28 0;
#X connect 29 0 39 0;
#X connect 31 0 29 0;
#X connect 32 0 29 0;
#X connect 33 0 34 0;
#X connect 33 1 34 1;
#X connect 33 2 34 2;
#X connect 34 0 27 0;
#X connect 34 1 31 0;
#X connect 34 2 32 0;
#X connect 35 0 36 0;
#X connect 36 0 34 0;
#X connect 38 0 37 0;
#X connect 38 0 41 0;
#X connect 41 0 42 0;
#X connect 43 0 45 0;
#X connect 43 0 45 1;
#X connect 45 0 44 0;
#X connect 45 1 44 1;
