#N canvas 1023 372 660 340 10;
#X symbolatom 339 47 45 0 0 0 - #0-filenameR #0-filenameS;
#X obj 322 165 openpanel;
#X obj 305 34 bng 30 250 50 0 \$0-selectFile empty empty 17 7 0 10
-262144 -1 -1;
#X obj 322 138 r \$0-selectFile;
#X obj 322 191 s \$0-filenameR;
#X obj 93 27 r \$0-filenameS;
#X text 337 31 Selecione o Arquivo de dados pra tocar as cordas;
#X obj 111 56 print using music file;
#X msg 132 102 read \$1 cr;
#X obj 93 148 textfile;
#X obj 93 77 t b b s;
#X msg 112 123 rewind;
#X obj 93 178 unpack f f f;
#X obj 162 204 s \$0-delay;
#X obj 42 110 del;
#X obj 18 47 r \$0-delay;
#X obj 93 207 pack f f;
#X obj 93 294 outlet;
#X msg 42 88 \$1;
#X obj 346 70 bng 15 250 50 0 empty empty Play 17 7 0 10 -262144 -1
-1;
#X msg 152 238 -1 -1;
#X text 190 239 Essa é a tupla que diz que acabou a musica;
#X connect 1 0 4 0;
#X connect 3 0 1 0;
#X connect 5 0 7 0;
#X connect 5 0 10 0;
#X connect 8 0 9 0;
#X connect 9 0 12 0;
#X connect 9 1 20 0;
#X connect 10 0 9 0;
#X connect 10 1 11 0;
#X connect 10 2 8 0;
#X connect 11 0 9 0;
#X connect 12 0 16 0;
#X connect 12 1 16 1;
#X connect 12 2 13 0;
#X connect 14 0 9 0;
#X connect 15 0 18 0;
#X connect 16 0 17 0;
#X connect 18 0 14 0;
#X connect 19 0 4 0;
#X connect 20 0 17 0;
#X coords 0 -1 1 1 330 70 1 300 20;
