#N canvas 1099 156 728 276 10;
#X symbolatom 381 35 45 0 0 0 - #0-filenameR #0-filenameS;
#X obj 141 152 openpanel;
#X obj 332 23 bng 30 250 50 0 \$0-selectFile empty empty 17 7 0 10
-262144 -1 -1;
#X obj 141 125 r \$0-selectFile;
#X obj 141 186 s \$0-filenameR;
#X obj 44 27 r \$0-filenameS;
#X obj 62 57 print using IR file;
#X obj 44 150 soundfiler;
#N canvas 0 0 450 300 (subpatch) 0;
#X array IR-left 128 float 4;
#X coords 0 1 127 -1 200 140 1;
#X restore 276 71 graph;
#N canvas 0 0 450 300 (subpatch) 0;
#X array IR-right 128 float 4;
#X coords 0 1 127 -1 200 140 1;
#X restore 479 71 graph;
#X msg 44 83 read -resize \$1 IR-left IR-right;
#X obj 44 185 s IR-size;
#X text 380 18 Selecione o Arquivo de Impulse Response;
#X connect 1 0 4 0;
#X connect 3 0 1 0;
#X connect 5 0 10 0;
#X connect 5 0 6 0;
#X connect 7 0 11 0;
#X connect 10 0 7 0;
#X coords 0 -1 1 1 415 195 1 270 20;
