#N canvas 117 0 1717 928 16;
#X obj 78 338 until;
#X obj 78 373 f;
#X obj 124 372 + 1;
#X msg 141 338 0;
#X obj 158 573 f;
#X obj 303 579 f;
#X obj 104 742 expr max($f1 \, $f2) \; if ($f1>$f2 \, $f3 \, $f4);
#X text 12 371 indice;
#X obj 78 408 t f f f b b;
#X obj 830 488 f;
#X obj 601 494 f;
#X obj 189 371 t f f;
#X floatatom 830 524 10 0 0 0 - - -;
#X floatatom 601 528 10 0 0 0 - - -;
#X floatatom 1128 750 10 0 0 1 Frequencia - -;
#X text 181 571 max(temp);
#X text 339 578 indmax(temp);
#X text 869 482 max(final);
#X text 650 487 indmax(final);
#X msg 185 493 0;
#X obj 29 50 inlet~;
#X obj 1325 70 inlet;
#X obj 1128 785 outlet;
#X text 1246 44 Tamanho do Bloco de Analise (potencia2);
#X text 1126 812 Freq (HZ) do maior pico;
#X obj 82 86 bang~;
#X obj 236 407 select;
#N canvas 0 0 450 300 (subpatch) 1;
#X array \$0-espectromagnitude 64 float 3;
#A 0 4.42637e-005 4.31775e-005 3.29592e-005 6.70339e-005 0.00196099
0.0080371 0.00561264 0.000337406 2.56312e-005 5.97711e-005 6.14408e-005
5.77196e-005 5.32618e-005 4.91877e-005 0.253362 0.253362 0.313362 0.333362
0.366695 0.400028 0.413362 0.453362 0.506695 0.613361 0.626695 0.593361
0.560028 0.526695 0.486695 0.426695 2.70064e-005 2.68982e-005 2.68622e-005
0 0 0 0 0 0 0 0 0 0 0 0 0 0 0 0 0 0 0 0 0 0 0 0 0 0 0 0 0 0 0;
#X coords 0 1 64 -1 200 140 1 0 0;
#X restore 367 50 graph;
#X obj 30 181 tabwrite~ \$0-espectromagnitude;
#X obj 104 646 tabread \$0-espectromagnitude;
#X obj 1383 245 send \$0-espectromagnitude;
#X msg 1383 210 resize \$1;
#X obj 1412 176 block~;
#X msg 1412 142 set \$1 1 1;
#X text 1272 459 A=(F[k+1]-2*F[k]+[k-1])/2;
#X text 1481 585 B=(F[k+1]-F[k-1])/2;
#X text 974 622 F[k+1];
#X text 949 680 F[k];
#X text 963 739 F[k-1];
#X obj 1128 717 expr $f1*44100.0/$f2;
#X obj 688 623 tabread \$0-espectromagnitude;
#X obj 688 597 + 1;
#X obj 659 683 tabread \$0-espectromagnitude;
#X obj 674 744 tabread \$0-espectromagnitude;
#X obj 630 744 - 1;
#X obj 1365 558 expr ($f1-$f2)/2.0;
#X obj 601 567 t f f f f;
#X obj 1354 279 expr ($f1/2)+1;
#X obj 82 300 f;
#X obj 1246 483 expr ($f1-(2.0*$f2)+$f3)/2.0;
#X obj 1128 625 expr $f1-($f3/(2.0*$f2));
#X text 1195 647 x = k-(B/2A);
#X obj 1325 108 t f f f f;
#X text 15 5 Sinal de Audio (espectro de magnitude);
#X obj 82 121 t b b b b;
#X obj 688 653 send \$0-Fk+;
#X obj 659 711 send \$0-Fk;
#X obj 674 778 send \$0-Fk-;
#X obj 601 810 send \$0-k;
#X obj 1365 523 receive \$0-Fk+;
#X obj 176 672 r \$0-maxTemp;
#X obj 158 606 s \$0-maxTemp;
#X obj 1128 418 r \$0-k;
#X obj 1246 419 r \$0-Fk+;
#X obj 1384 421 r \$0-Fk;
#X obj 1542 422 r \$0-Fk-;
#X obj 857 437 r \$0-maxTemp;
#X obj 303 608 s \$0-iMaxTemp;
#X obj 628 443 r \$0-iMaxTemp;
#X obj 321 707 r \$0-iMaxTemp;
#X obj 1354 314 s \$0-block;
#X obj 293 372 r \$0-block;
#X obj 109 263 r \$0-block;
#X obj 104 802 s \$0-nMT;
#X obj 196 537 r \$0-nMT;
#X obj 321 801 s \$0-nIMT;
#X obj 330 529 r \$0-nIMT;
#X obj 236 471 s \$0-finalBng;
#X obj 830 412 r \$0-finalBng;
#X obj 601 416 r \$0-finalBng;
#X obj 236 438 t b b b;
#X obj 131 452 s \$0-I;
#X obj 248 707 r \$0-I;
#X connect 0 0 1 0;
#X connect 1 0 8 0;
#X connect 2 0 11 0;
#X connect 3 0 1 1;
#X connect 4 0 61 0;
#X connect 5 0 67 0;
#X connect 6 0 73 0;
#X connect 6 1 75 0;
#X connect 8 0 2 0;
#X connect 8 1 29 0;
#X connect 8 2 81 0;
#X connect 8 3 4 0;
#X connect 8 4 5 0;
#X connect 9 0 12 0;
#X connect 10 0 13 0;
#X connect 11 0 1 1;
#X connect 11 1 26 0;
#X connect 13 0 46 0;
#X connect 14 0 22 0;
#X connect 19 0 4 1;
#X connect 20 0 28 0;
#X connect 21 0 52 0;
#X connect 25 0 54 0;
#X connect 26 0 80 0;
#X connect 29 0 6 0;
#X connect 31 0 30 0;
#X connect 33 0 32 0;
#X connect 39 0 14 0;
#X connect 40 0 55 0;
#X connect 41 0 40 0;
#X connect 42 0 56 0;
#X connect 43 0 57 0;
#X connect 44 0 43 0;
#X connect 45 0 50 2;
#X connect 46 0 58 0;
#X connect 46 1 44 0;
#X connect 46 2 42 0;
#X connect 46 3 41 0;
#X connect 47 0 70 0;
#X connect 48 0 0 0;
#X connect 49 0 50 1;
#X connect 50 0 39 0;
#X connect 52 0 39 1;
#X connect 52 1 47 0;
#X connect 52 2 31 0;
#X connect 52 3 33 0;
#X connect 54 0 48 0;
#X connect 54 1 3 0;
#X connect 54 2 19 0;
#X connect 54 3 28 0;
#X connect 59 0 45 0;
#X connect 60 0 6 1;
#X connect 62 0 50 0;
#X connect 63 0 49 0;
#X connect 64 0 49 1;
#X connect 65 0 49 2;
#X connect 65 0 45 1;
#X connect 66 0 9 1;
#X connect 68 0 10 1;
#X connect 69 0 6 3;
#X connect 71 0 26 1;
#X connect 72 0 48 1;
#X connect 74 0 4 1;
#X connect 76 0 5 1;
#X connect 78 0 9 0;
#X connect 79 0 10 0;
#X connect 80 0 77 0;
#X connect 80 1 4 0;
#X connect 80 2 5 0;
#X connect 82 0 6 2;
