#N canvas 812 328 253 388 10;
#X obj -4 73 inlet index;
#X obj 77 72 inlet value;
#X obj 33 324 tabwrite \$1;
#X obj 33 129 t b f;
#X obj 33 228 f 1;
#X obj 33 293 *;
#X obj 60 265 + 1;
#X obj 60 189 t f f;
#X floatatom 25 363 5 0 0 0 - - -;
#X connect 0 0 3 0;
#X connect 1 0 4 1;
#X connect 3 0 4 0;
#X connect 3 1 7 0;
#X connect 4 0 5 0;
#X connect 5 0 2 0;
#X connect 5 0 8 0;
#X connect 6 0 5 1;
#X connect 7 0 6 0;
#X connect 7 1 2 1;
#X coords 0 0 1 1 200 100 0;
