#N canvas 79 126 871 724 10;
#X obj 6 15 cnv 1 400 400 squad rquad empty 20 12 0 14 -233017 -66577
0;
#X obj 222 176 cnv 10 10 10 sp1 rp1 1 2 5 0 10 -258113 -1 0;
#X obj 222 254 cnv 2 10 10 sp2 rp2 2 2 5 0 10 -258113 -1 0;
#X obj 140 183 cnv 10 10 10 sz1 rz1 1 2 5 0 10 -4032 -1 0;
#X obj 140 247 cnv 2 10 10 sz2 rz2 2 2 5 0 10 -4032 -1 0;
#X obj 354 17 cnv 10 50 10 empty empty Pólos 10 5 0 10 -258113 -1
0;
#X obj 354 403 cnv 10 50 10 empty empty Zeros 10 5 0 10 -4032 -1 0
;
#N canvas 843 369 450 300 toPolar 0;
#X obj 101 130 cart2pol;
#X obj 101 16 inlet X \, Y;
#X obj 101 62 unpack 0 0;
#X obj 101 186 pack 0 0;
#X obj 101 243 outlet R \, PHI;
#X connect 0 0 3 0;
#X connect 0 1 3 1;
#X connect 1 0 2 0;
#X connect 2 0 0 0;
#X connect 2 1 0 1;
#X connect 3 0 4 0;
#X restore 604 421 pd toPolar;
#N canvas 1078 534 551 321 toCoefficients 0;
#X obj 348 37 inlet Polo1;
#X obj 39 20 inlet Zero1;
#X obj 39 237 outlet a1;
#X obj 152 239 outlet a2;
#X obj 348 237 outlet b1;
#X obj 426 236 outlet b2;
#X obj 39 153 expr -$f1*2.0*$f2;
#X obj 348 70 unpack 0 0;
#X obj 39 52 unpack 0 0;
#X obj 152 152 expr $f1*$f1*$f2;
#X obj 348 159 expr 2*$f1;
#X obj 426 160 expr $f1*$f1;
#X obj 138 86 r a0;
#X obj 245 89 r a0;
#X obj 348 106 t f f;
#X obj 39 89 t f f;
#X connect 0 0 7 0;
#X connect 1 0 8 0;
#X connect 6 0 2 0;
#X connect 7 0 14 0;
#X connect 8 0 15 0;
#X connect 9 0 3 0;
#X connect 10 0 4 0;
#X connect 11 0 5 0;
#X connect 12 0 6 1;
#X connect 13 0 9 1;
#X connect 14 0 10 0;
#X connect 14 1 11 0;
#X connect 15 0 6 0;
#X connect 15 1 9 0;
#X restore 505 454 pd toCoefficients;
#X obj 505 506 s a1;
#X obj 538 505 s a2;
#X obj 604 505 s b2;
#X obj 571 506 s b1;
#X obj 88 444 hsl 128 15 -1 1 0 0 a0 empty a0 -2 -8 0 10 -262144 -1
-1 0 1;
#N canvas 1386 243 471 685 storeP1 0;
#X obj 25 20 bang~;
#X obj 258 60 r squad;
#X obj 177 58 r sp1;
#X obj 177 154 unpack;
#X obj 177 249 pack;
#X obj 177 188 change;
#X obj 222 214 t b f;
#X obj 222 187 change;
#N canvas 446 449 450 302 minusCoords 0;
#X obj 177 70 unpack;
#X obj 264 95 unpack;
#X obj 177 217 pack;
#X obj 177 147 -;
#X obj 222 147 -;
#X obj 222 182 t b f;
#X obj 225 71 t b b l;
#X obj 177 253 outlet;
#X obj 177 27 inlet;
#X obj 225 28 inlet;
#X connect 0 0 3 0;
#X connect 0 1 4 0;
#X connect 1 0 3 1;
#X connect 1 1 4 1;
#X connect 2 0 7 0;
#X connect 3 0 2 0;
#X connect 4 0 5 0;
#X connect 5 0 2 0;
#X connect 5 1 2 1;
#X connect 6 2 1 0;
#X connect 8 0 0 0;
#X connect 9 0 6 0;
#X restore 177 122 pd minusCoords;
#X obj 177 485 t l l;
#X obj 204 517 unpack;
#X obj 204 581 pack;
#X obj 177 642 outlet;
#X msg 25 57 \; rquad get_pos \; rp1 get_pos;
#X obj 204 612 s update_p2;
#N canvas 446 449 450 302 addCoords 0;
#X obj 177 70 unpack;
#X obj 264 95 unpack;
#X obj 177 217 pack;
#X obj 222 182 t b f;
#X obj 225 71 t b b l;
#X obj 177 253 outlet;
#X obj 177 27 inlet;
#X obj 225 28 inlet;
#X obj 177 147 +;
#X obj 222 147 +;
#X connect 0 0 8 0;
#X connect 0 1 9 0;
#X connect 1 0 8 1;
#X connect 1 1 9 1;
#X connect 2 0 5 0;
#X connect 3 0 2 0;
#X connect 3 1 2 1;
#X connect 4 2 1 0;
#X connect 6 0 0 0;
#X connect 7 0 4 0;
#X connect 8 0 2 0;
#X connect 9 0 3 0;
#X restore 24 345 pd addCoords;
#X obj 93 316 r squad;
#X msg 24 374 \; rp2 pos \$1 \$2;
#X obj 24 164 r update_p2;
#N canvas 1347 508 450 300 absPair 0;
#X obj 63 17 inlet;
#X obj 63 58 unpack;
#X obj 63 99 expr sqrt( $f1*$f1 + $f2*$f2 );
#X obj 63 159 outlet;
#X connect 0 0 1 0;
#X connect 1 0 2 0;
#X connect 1 1 2 1;
#X connect 2 0 3 0;
#X restore 210 320 pd absPair;
#X obj 177 419 demux . .;
#X obj 177 276 t l l;
#N canvas 376 417 450 300 checkRestrict 0;
#X obj 159 111 moses;
#X obj 186 61 r quadSize;
#X obj 186 85 / 2;
#X obj 159 37 inlet;
#X obj 141 178 f 0;
#X obj 196 176 f 1;
#X obj 141 141 b;
#X obj 190 147 b;
#X obj 163 229 outlet;
#X connect 0 0 6 0;
#X connect 0 1 7 0;
#X connect 1 0 2 0;
#X connect 2 0 0 1;
#X connect 3 0 0 0;
#X connect 4 0 8 0;
#X connect 5 0 8 0;
#X connect 6 0 4 0;
#X connect 7 0 5 0;
#X restore 210 350 pd checkRestrict;
#N canvas 1425 386 450 494 doRestrict 0;
#X obj 31 17 inlet;
#N canvas 1347 508 450 300 absPair 0;
#X obj 63 17 inlet;
#X obj 63 58 unpack;
#X obj 63 99 expr sqrt( $f1*$f1 + $f2*$f2 );
#X obj 63 159 outlet;
#X connect 0 0 1 0;
#X connect 1 0 2 0;
#X connect 1 1 2 1;
#X connect 2 0 3 0;
#X restore 86 76 pd absPair;
#X obj 31 52 t l l;
#X obj 31 111 unpack;
#X obj 31 148 expr ($f3-1) * $f1 / $f2;
#X obj 189 49 r quadSize;
#X obj 189 73 / 2;
#X obj 83 174 expr ($f3-1) * $f1 / $f2;
#X obj 31 253 pack;
#N canvas 446 449 450 302 addCoords 0;
#X obj 177 70 unpack;
#X obj 264 95 unpack;
#X obj 177 217 pack;
#X obj 222 182 t b f;
#X obj 225 71 t b b l;
#X obj 177 253 outlet;
#X obj 177 27 inlet;
#X obj 225 28 inlet;
#X obj 177 147 +;
#X obj 222 147 +;
#X connect 0 0 8 0;
#X connect 0 1 9 0;
#X connect 1 0 8 1;
#X connect 1 1 9 1;
#X connect 2 0 5 0;
#X connect 3 0 2 0;
#X connect 3 1 2 1;
#X connect 4 2 1 0;
#X connect 6 0 0 0;
#X connect 7 0 4 0;
#X connect 8 0 2 0;
#X connect 9 0 3 0;
#X restore 31 285 pd addCoords;
#X obj 107 204 r squad;
#X msg 31 314 \; rp1 pos \$1 \$2;
#X obj 171 202 pack;
#N canvas 446 449 450 302 addCoords 0;
#X obj 177 70 unpack;
#X obj 264 95 unpack;
#X obj 177 217 pack;
#X obj 222 182 t b f;
#X obj 225 71 t b b l;
#X obj 177 253 outlet;
#X obj 177 27 inlet;
#X obj 225 28 inlet;
#X obj 177 147 +;
#X obj 222 147 +;
#X connect 0 0 8 0;
#X connect 0 1 9 0;
#X connect 1 0 8 1;
#X connect 1 1 9 1;
#X connect 2 0 5 0;
#X connect 3 0 2 0;
#X connect 3 1 2 1;
#X connect 4 2 1 0;
#X connect 6 0 0 0;
#X connect 7 0 4 0;
#X connect 8 0 2 0;
#X connect 9 0 3 0;
#X restore 126 247 pd addCoords;
#X obj 189 99 t f f f f;
#X obj 101 115 t f f;
#X connect 0 0 2 0;
#X connect 1 0 15 0;
#X connect 2 0 3 0;
#X connect 2 1 1 0;
#X connect 3 0 4 0;
#X connect 3 1 7 0;
#X connect 4 0 8 0;
#X connect 5 0 6 0;
#X connect 6 0 14 0;
#X connect 7 0 8 1;
#X connect 8 0 9 0;
#X connect 9 0 11 0;
#X connect 10 0 13 0;
#X connect 12 0 13 1;
#X connect 13 0 9 1;
#X connect 14 0 4 2;
#X connect 14 1 7 2;
#X connect 14 2 12 0;
#X connect 14 3 12 1;
#X connect 15 0 4 1;
#X connect 15 1 7 1;
#X restore 228 461 pd doRestrict;
#X obj 352 24 r quadSize;
#X obj 352 46 / 2;
#X obj 352 92 pack;
#X obj 93 185 r quadSize;
#X obj 93 209 / 2;
#X obj 93 259 pack;
#N canvas 446 449 450 302 addCoords 0;
#X obj 177 70 unpack;
#X obj 264 95 unpack;
#X obj 177 217 pack;
#X obj 222 182 t b f;
#X obj 225 71 t b b l;
#X obj 177 253 outlet;
#X obj 177 27 inlet;
#X obj 225 28 inlet;
#X obj 177 147 +;
#X obj 222 147 +;
#X connect 0 0 8 0;
#X connect 0 1 9 0;
#X connect 1 0 8 1;
#X connect 1 1 9 1;
#X connect 2 0 5 0;
#X connect 3 0 2 0;
#X connect 3 1 2 1;
#X connect 4 2 1 0;
#X connect 6 0 0 0;
#X connect 7 0 4 0;
#X connect 8 0 2 0;
#X connect 9 0 3 0;
#X restore 24 286 pd addCoords;
#X obj 225 550 expr -$f1;
#N canvas 446 449 450 302 addCoords 0;
#X obj 177 70 unpack;
#X obj 264 95 unpack;
#X obj 177 217 pack;
#X obj 222 182 t b f;
#X obj 225 71 t b b l;
#X obj 177 253 outlet;
#X obj 177 27 inlet;
#X obj 225 28 inlet;
#X obj 177 147 +;
#X obj 222 147 +;
#X connect 0 0 8 0;
#X connect 0 1 9 0;
#X connect 1 0 8 1;
#X connect 1 1 9 1;
#X connect 2 0 5 0;
#X connect 3 0 2 0;
#X connect 3 1 2 1;
#X connect 4 2 1 0;
#X connect 6 0 0 0;
#X connect 7 0 4 0;
#X connect 8 0 2 0;
#X connect 9 0 3 0;
#X restore 264 97 pd addCoords;
#X obj 352 68 t f f;
#X obj 93 234 t f f;
#X connect 0 0 13 0;
#X connect 1 0 32 0;
#X connect 2 0 8 0;
#X connect 3 0 5 0;
#X connect 3 1 7 0;
#X connect 4 0 21 0;
#X connect 5 0 4 0;
#X connect 6 0 4 0;
#X connect 6 1 4 1;
#X connect 7 0 6 0;
#X connect 8 0 3 0;
#X connect 9 0 12 0;
#X connect 9 1 10 0;
#X connect 10 0 11 0;
#X connect 10 1 31 0;
#X connect 11 0 14 0;
#X connect 15 0 17 0;
#X connect 16 0 15 1;
#X connect 18 0 30 0;
#X connect 19 0 22 0;
#X connect 20 0 9 0;
#X connect 20 1 23 0;
#X connect 21 0 20 0;
#X connect 21 1 19 0;
#X connect 22 0 20 1;
#X connect 24 0 25 0;
#X connect 25 0 33 0;
#X connect 26 0 32 1;
#X connect 27 0 28 0;
#X connect 28 0 34 0;
#X connect 29 0 30 1;
#X connect 30 0 15 0;
#X connect 31 0 11 1;
#X connect 32 0 8 1;
#X connect 33 0 26 0;
#X connect 33 1 26 1;
#X connect 34 0 29 0;
#X connect 34 1 29 1;
#X restore 604 360 pd storeP1;
#X obj 670 141 loadbang;
#X obj 670 177 f 400;
#X obj 670 210 s quadSize;
#N canvas 984 395 450 300 scaleToUnitRange 0;
#X obj 80 23 inlet;
#X obj 166 253 outlet;
#X obj 80 52 unpack 0 0;
#X obj 166 214 pack 0 0;
#X obj 306 51 r quadSize;
#X obj 80 163 expr $f1/$f2;
#X obj 297 84 / 2;
#X obj 234 164 expr $f1/$f2;
#X connect 0 0 2 0;
#X connect 2 0 5 0;
#X connect 2 1 7 0;
#X connect 3 0 1 0;
#X connect 4 0 6 0;
#X connect 5 0 3 0;
#X connect 6 0 5 1;
#X connect 6 0 7 1;
#X connect 7 0 3 1;
#X restore 505 334 pd scaleToUnitRange;
#N canvas 843 369 450 300 toPolar 0;
#X obj 101 130 cart2pol;
#X obj 101 16 inlet X \, Y;
#X obj 101 62 unpack 0 0;
#X obj 101 186 pack 0 0;
#X obj 101 243 outlet R \, PHI;
#X connect 0 0 3 0;
#X connect 0 1 3 1;
#X connect 1 0 2 0;
#X connect 2 0 0 0;
#X connect 2 1 0 1;
#X connect 3 0 4 0;
#X restore 505 374 pd toPolar;
#N canvas 984 395 450 300 scaleToUnitRange 0;
#X obj 80 23 inlet;
#X obj 166 253 outlet;
#X obj 80 52 unpack 0 0;
#X obj 166 214 pack 0 0;
#X obj 306 51 r quadSize;
#X obj 80 163 expr $f1/$f2;
#X obj 297 84 / 2;
#X obj 234 164 expr $f1/$f2;
#X connect 0 0 2 0;
#X connect 2 0 5 0;
#X connect 2 1 7 0;
#X connect 3 0 1 0;
#X connect 4 0 6 0;
#X connect 5 0 3 0;
#X connect 6 0 5 1;
#X connect 6 0 7 1;
#X connect 7 0 3 1;
#X restore 604 390 pd scaleToUnitRange;
#N canvas 1012 138 471 685 storeZ1 1;
#X obj 25 20 bang~;
#X obj 258 60 r squad;
#X obj 177 154 unpack;
#X obj 177 249 pack;
#X obj 177 188 change;
#X obj 222 214 t b f;
#X obj 222 187 change;
#N canvas 446 449 450 302 minusCoords 0;
#X obj 177 70 unpack;
#X obj 264 95 unpack;
#X obj 177 217 pack;
#X obj 177 147 -;
#X obj 222 147 -;
#X obj 222 182 t b f;
#X obj 225 71 t b b l;
#X obj 177 253 outlet;
#X obj 177 27 inlet;
#X obj 225 28 inlet;
#X connect 0 0 3 0;
#X connect 0 1 4 0;
#X connect 1 0 3 1;
#X connect 1 1 4 1;
#X connect 2 0 7 0;
#X connect 3 0 2 0;
#X connect 4 0 5 0;
#X connect 5 0 2 0;
#X connect 5 1 2 1;
#X connect 6 2 1 0;
#X connect 8 0 0 0;
#X connect 9 0 6 0;
#X restore 177 122 pd minusCoords;
#X obj 177 361 t l l;
#X obj 204 393 unpack;
#X obj 204 457 pack;
#X obj 177 518 outlet;
#N canvas 446 449 450 302 addCoords 0;
#X obj 177 70 unpack;
#X obj 264 95 unpack;
#X obj 177 217 pack;
#X obj 222 182 t b f;
#X obj 225 71 t b b l;
#X obj 177 253 outlet;
#X obj 177 27 inlet;
#X obj 225 28 inlet;
#X obj 177 147 +;
#X obj 222 147 +;
#X connect 0 0 8 0;
#X connect 0 1 9 0;
#X connect 1 0 8 1;
#X connect 1 1 9 1;
#X connect 2 0 5 0;
#X connect 3 0 2 0;
#X connect 3 1 2 1;
#X connect 4 2 1 0;
#X connect 6 0 0 0;
#X connect 7 0 4 0;
#X connect 8 0 2 0;
#X connect 9 0 3 0;
#X restore 24 345 pd addCoords;
#X obj 93 316 r squad;
#X obj 352 24 r quadSize;
#X obj 352 46 / 2;
#X obj 352 92 pack;
#X obj 93 185 r quadSize;
#X obj 93 209 / 2;
#X obj 93 259 pack;
#N canvas 446 449 450 302 addCoords 0;
#X obj 177 70 unpack;
#X obj 264 95 unpack;
#X obj 177 217 pack;
#X obj 222 182 t b f;
#X obj 225 71 t b b l;
#X obj 177 253 outlet;
#X obj 177 27 inlet;
#X obj 225 28 inlet;
#X obj 177 147 +;
#X obj 222 147 +;
#X connect 0 0 8 0;
#X connect 0 1 9 0;
#X connect 1 0 8 1;
#X connect 1 1 9 1;
#X connect 2 0 5 0;
#X connect 3 0 2 0;
#X connect 3 1 2 1;
#X connect 4 2 1 0;
#X connect 6 0 0 0;
#X connect 7 0 4 0;
#X connect 8 0 2 0;
#X connect 9 0 3 0;
#X restore 24 286 pd addCoords;
#X obj 225 426 expr -$f1;
#N canvas 446 449 450 302 addCoords 0;
#X obj 177 70 unpack;
#X obj 264 95 unpack;
#X obj 177 217 pack;
#X obj 222 182 t b f;
#X obj 225 71 t b b l;
#X obj 177 253 outlet;
#X obj 177 27 inlet;
#X obj 225 28 inlet;
#X obj 177 147 +;
#X obj 222 147 +;
#X connect 0 0 8 0;
#X connect 0 1 9 0;
#X connect 1 0 8 1;
#X connect 1 1 9 1;
#X connect 2 0 5 0;
#X connect 3 0 2 0;
#X connect 3 1 2 1;
#X connect 4 2 1 0;
#X connect 6 0 0 0;
#X connect 7 0 4 0;
#X connect 8 0 2 0;
#X connect 9 0 3 0;
#X restore 264 97 pd addCoords;
#X obj 352 68 t f f;
#X obj 93 234 t f f;
#X msg 25 56 \; rquad get_pos \; rz1 get_pos;
#X obj 177 58 r sz1;
#X obj 24 164 r update_z2;
#X msg 24 374 \; rz2 pos \$1 \$2;
#X obj 204 488 s update_z2;
#X connect 0 0 25 0;
#X connect 1 0 22 0;
#X connect 2 0 4 0;
#X connect 2 1 6 0;
#X connect 3 0 8 0;
#X connect 4 0 3 0;
#X connect 5 0 3 0;
#X connect 5 1 3 1;
#X connect 6 0 5 0;
#X connect 7 0 2 0;
#X connect 8 0 11 0;
#X connect 8 1 9 0;
#X connect 9 0 10 0;
#X connect 9 1 21 0;
#X connect 10 0 29 0;
#X connect 12 0 28 0;
#X connect 13 0 12 1;
#X connect 14 0 15 0;
#X connect 15 0 23 0;
#X connect 16 0 22 1;
#X connect 17 0 18 0;
#X connect 18 0 24 0;
#X connect 19 0 20 1;
#X connect 20 0 12 0;
#X connect 21 0 10 1;
#X connect 22 0 7 1;
#X connect 23 0 16 0;
#X connect 23 1 16 1;
#X connect 24 0 19 0;
#X connect 24 1 19 1;
#X connect 26 0 7 0;
#X connect 27 0 20 0;
#X restore 505 300 pd storeZ1;
#X connect 7 0 8 1;
#X connect 8 0 9 0;
#X connect 8 1 10 0;
#X connect 8 2 12 0;
#X connect 8 3 11 0;
#X connect 14 0 20 0;
#X connect 15 0 16 0;
#X connect 16 0 17 0;
#X connect 18 0 19 0;
#X connect 19 0 8 0;
#X connect 20 0 7 0;
#X connect 21 0 18 0;
